<svg width="68" height="58" viewBox="0 0 68 58" fill="none" xmlns="http://www.w3.org/2000/svg">
<path d="M54.6008 29.5535C62.0383 29.5535 67.0504 35.2605 67.0504 43.7164C67.0504 51.3257 61.2898 57.665 53.4875 57.665C44.9414 57.665 38.6266 50.0557 38.6266 38.4328C38.6266 12.0145 56.0883 1.44722 67.0504 0.177261V11.8002C59.6176 13.2792 51.261 21.5209 50.8867 30.6144C51.261 30.4054 52.7438 29.5535 54.6008 29.5535ZM16.7072 29.5535C24.1353 29.5535 29.1521 35.2605 29.1521 43.7164C29.1521 51.3257 23.3915 57.665 15.5892 57.665C7.04314 57.665 0.728333 50.0557 0.728333 38.4328C0.728333 12.0145 18.19 1.44722 29.1521 0.177261V11.8002C21.7193 13.2792 13.3627 21.5209 12.9884 30.6144C13.3627 30.4054 14.8455 29.5535 16.7072 29.5535Z" fill="#050505"/>
</svg>
