<svg width="13" height="12" viewBox="0 0 13 12" fill="none" xmlns="http://www.w3.org/2000/svg">
<path d="M6.11866 0.59681C6.28197 0.094202 6.99302 0.0942023 7.15633 0.59681L8.22974 3.90042C8.30278 4.1252 8.51224 4.27738 8.74858 4.27738L12.2222 4.27738C12.7507 4.27738 12.9704 4.95364 12.5429 5.26426L9.73264 7.30601C9.54143 7.44493 9.46143 7.69116 9.53446 7.91594L10.6079 11.2196C10.7712 11.7222 10.1959 12.1401 9.76838 11.8295L6.95815 9.78773C6.76695 9.64882 6.50804 9.64882 6.31684 9.78773L3.50662 11.8295C3.07907 12.1401 2.50382 11.7222 2.66712 11.2196L3.74053 7.91594C3.81357 7.69116 3.73356 7.44493 3.54236 7.30601L0.732134 5.26426C0.30459 4.95364 0.524318 4.27738 1.05279 4.27738L4.52642 4.27738C4.76276 4.27738 4.97222 4.1252 5.04525 3.90042L6.11866 0.59681Z" fill="white"/>
</svg>
