<svg width="13" height="14" viewBox="0 0 13 14" fill="none" xmlns="http://www.w3.org/2000/svg">
<path d="M6.5691 0.52211C3.11843 0.52211 0.321381 3.31969 0.321381 6.76983C0.321381 10.2205 3.11843 13.0176 6.5691 13.0176C10.0192 13.0176 12.8168 10.22 12.8168 6.76983C12.8168 3.31969 10.0192 0.52211 6.5691 0.52211ZM5.03853 8.44754C5.03853 8.78519 4.76491 9.05828 4.42778 9.05828C4.09013 9.05828 3.81704 8.78519 3.81704 8.44754V5.84366C3.81704 5.506 4.09013 5.23238 4.42778 5.23238C4.76491 5.23238 5.03853 5.506 5.03853 5.84366V8.44754ZM9.35293 8.40361C9.35293 8.88099 9.07401 9.05193 8.59664 9.05193H6.40027C5.9229 9.05193 5.53602 8.66506 5.53602 8.18768V6.0273C5.53602 6.0273 5.49315 5.66795 5.89114 5.33029C6.11607 5.13923 6.45002 4.77458 6.68342 4.33214C7.14704 3.45306 7.42436 3.19691 7.63553 3.26571C8.41775 3.51922 8.02664 4.67879 7.77419 5.16305H8.48867C8.96552 5.16305 9.35293 5.54993 9.35293 6.0273V8.40361Z" fill="white"/>
</svg>
